<svg xmlns="http://www.w3.org/2000/svg" viewBox="0 0 64 64">
  <defs>
    <linearGradient id="g" x1="0" y1="0" x2="1" y2="1">
      <stop offset="0%" stop-color="#0d6efd"/>
      <stop offset="100%" stop-color="#0dcaf0"/>
    </linearGradient>
  </defs>
  <rect x="4" y="4" width="56" height="56" rx="14" fill="#0f172a"/>
  <rect x="10" y="10" width="44" height="44" rx="11" fill="url(#g)"/>
  <path d="M32 18c-5 0-9 4-9 9v2h-2a5 5 0 0 0 0 10h2v2c0 5 4 9 9 9s9-4 9-9v-2h2a5 5 0 0 0 0-10h-2v-2c0-5-4-9-9-9z"
        fill="#ffffff"/>
  <rect x="29" y="23" width="6" height="18" rx="2" fill="#0d6efd"/>
  <rect x="23" y="29" width="18" height="6" rx="2" fill="#0d6efd"/>
</svg>
